<svg width="2000px" height="87px"
 viewBox="0.00 0.00 2407.57 105.15" xmlns="http://www.w3.org/2000/svg" xmlns:xlink="http://www.w3.org/1999/xlink">
<g id="graph0" class="graph" transform="scale(1.0 1.0) rotate(0) translate(4 101.15)">
<title>ContextMapGraph</title>
<polygon fill="white" stroke="transparent" points="-4,4 -4,-101.15 2403.57,-101.15 2403.57,4 -4,4"/>
<!-- AutorizacionAutenticacionContext -->
<g id="node1" class="node">
<title>AutorizacionAutenticacionContext</title>
<polygon fill="none" stroke="black" stroke-width="2" points="63.99,-74.54 55.06,-72.26 46.68,-69.92 38.9,-67.54 31.74,-65.11 25.25,-62.66 19.44,-60.19 14.34,-57.7 9.99,-55.21 6.39,-52.73 3.57,-50.26 1.53,-47.81 0.29,-45.39 -0.14,-43.01 0.23,-40.67 1.41,-38.38 3.39,-36.15 6.16,-33.97 9.71,-31.87 14.03,-29.84 19.09,-27.88 24.88,-26 31.37,-24.2 38.53,-22.49 46.33,-20.86 54.74,-19.32 63.72,-17.87 73.23,-16.52 83.24,-15.26 93.7,-14.08 104.57,-13.01 115.82,-12.02 127.38,-11.13 139.22,-10.33 151.3,-9.62 163.56,-9.01 175.97,-8.48 188.47,-8.05 201.03,-7.7 213.61,-7.44 226.15,-7.27 238.63,-7.19 251,-7.19 263.23,-7.28 275.28,-7.45 287.12,-7.71 298.72,-8.05 310.04,-8.48 321.07,-8.98 331.78,-9.58 342.13,-10.25 352.13,-11.01 361.74,-11.85 370.95,-12.77 379.75,-13.78 388.12,-14.87 396.05,-16.04 403.54,-17.29 410.58,-18.63 417.16,-20.04 423.27,-21.54 428.93,-23.11 434.11,-24.76 438.83,-26.49 443.08,-28.29 446.86,-30.16 450.18,-32.09 453.02,-34.1 455.41,-36.16 457.33,-38.29 458.79,-40.46 459.79,-42.69 460.33,-44.96 460.41,-47.26 460.04,-49.6 459.21,-51.97 457.93,-54.35 456.19,-56.74 454.01,-59.14 451.37,-61.54 448.28,-63.92 444.73,-66.28 440.74,-68.62 436.29,-70.91 431.4,-73.17 426.06,-75.36 420.27,-77.5 414.04,-79.56 407.36,-81.54 400.26,-83.43 392.72,-85.23 384.76,-86.92 376.39,-88.49 367.62,-89.95 358.45,-91.29 348.9,-92.48 338.99,-93.55 328.73,-94.46 318.14,-95.23 307.24,-95.85 296.06,-96.32 284.62,-96.62 272.94,-96.77 261.06,-96.76 249.01,-96.59 236.82,-96.25 224.53,-95.76 212.17,-95.12 199.78,-94.31 187.39,-93.36 175.06,-92.26 162.82,-91.02 150.72,-89.64 138.79,-88.14 127.09,-86.5 115.66,-84.76 104.53,-82.9 93.76,-80.94 83.38,-78.89 73.45,-76.75 63.99,-74.54"/>
<text text-anchor="middle" x="246.14" y="-44.78" font-family="sans-serif" font-size="16.00">AutorizacionAutenticacionContext</text>
</g>
<!-- GestionAlquilerContext -->
<g id="node2" class="node">
<title>GestionAlquilerContext</title>
<polygon fill="none" stroke="black" stroke-width="2" points="652.34,-91.48 641.88,-90.89 631.58,-90.19 621.49,-89.37 611.64,-88.45 602.08,-87.42 592.85,-86.28 583.97,-85.05 575.5,-83.72 567.45,-82.29 559.85,-80.78 552.74,-79.19 546.14,-77.51 540.06,-75.76 534.54,-73.94 529.57,-72.06 525.18,-70.12 521.37,-68.12 518.15,-66.07 515.53,-63.98 513.49,-61.85 512.04,-59.69 511.18,-57.5 510.89,-55.29 511.16,-53.06 511.98,-50.82 513.34,-48.58 515.21,-46.34 517.58,-44.11 520.42,-41.88 523.71,-39.68 527.43,-37.5 531.56,-35.35 536.07,-33.24 540.92,-31.16 546.11,-29.13 551.59,-27.15 557.35,-25.23 563.36,-23.36 569.59,-21.56 576.02,-19.83 582.63,-18.18 589.39,-16.6 596.28,-15.11 603.28,-13.7 610.37,-12.39 617.53,-11.17 624.76,-10.05 632.02,-9.02 639.31,-8.11 646.62,-7.3 653.93,-6.6 661.24,-6.01 668.53,-5.53 675.8,-5.18 683.03,-4.93 690.24,-4.81 697.39,-4.8 704.5,-4.92 711.56,-5.15 718.56,-5.5 725.5,-5.97 732.38,-6.56 739.18,-7.27 745.91,-8.09 752.56,-9.02 759.12,-10.07 765.58,-11.22 771.94,-12.48 778.19,-13.85 784.32,-15.31 790.32,-16.87 796.18,-18.52 801.87,-20.26 807.4,-22.08 812.74,-23.97 817.88,-25.94 822.8,-27.98 827.49,-30.07 831.91,-32.22 836.06,-34.42 839.92,-36.67 843.46,-38.94 846.66,-41.25 849.51,-43.58 851.97,-45.93 854.04,-48.28 855.69,-50.64 856.91,-52.99 857.66,-55.33 857.95,-57.65 857.75,-59.95 857.05,-62.21 855.83,-64.43 854.09,-66.61 851.82,-68.74 849.01,-70.81 845.66,-72.81 841.77,-74.75 837.33,-76.6 832.37,-78.38 826.87,-80.07 820.86,-81.67 814.35,-83.18 807.35,-84.58 799.88,-85.89 791.97,-87.08 783.63,-88.17 774.9,-89.14 765.81,-90 756.39,-90.74 746.67,-91.36 736.69,-91.86 726.48,-92.24 716.1,-92.49 705.57,-92.63 694.95,-92.64 684.27,-92.53 673.58,-92.3 662.92,-91.95 652.34,-91.48"/>
<text text-anchor="middle" x="688.14" y="-44.78" font-family="sans-serif" font-size="16.00">GestionAlquilerContext</text>
</g>
<!-- GestionClientesContext -->
<g id="node3" class="node">
<title>GestionClientesContext</title>
<polygon fill="none" stroke="black" stroke-width="2" points="1005.07,-7.77 1015.02,-6.64 1025.09,-5.62 1035.24,-4.73 1045.41,-3.97 1055.58,-3.34 1065.7,-2.84 1075.74,-2.48 1085.66,-2.26 1095.43,-2.19 1105,-2.26 1114.36,-2.47 1123.46,-2.82 1132.29,-3.32 1140.82,-3.96 1149.02,-4.74 1156.87,-5.66 1164.36,-6.71 1171.46,-7.9 1178.17,-9.21 1184.46,-10.65 1190.34,-12.2 1195.8,-13.87 1200.82,-15.64 1205.42,-17.51 1209.57,-19.48 1213.3,-21.53 1216.59,-23.66 1219.46,-25.87 1221.9,-28.13 1223.93,-30.45 1225.56,-32.82 1226.78,-35.23 1227.62,-37.66 1228.07,-40.12 1228.16,-42.59 1227.89,-45.07 1227.27,-47.54 1226.32,-50 1225.03,-52.44 1223.44,-54.86 1221.53,-57.24 1219.33,-59.58 1216.83,-61.88 1214.06,-64.12 1211.02,-66.29 1207.71,-68.41 1204.14,-70.45 1200.31,-72.41 1196.24,-74.29 1191.92,-76.09 1187.37,-77.79 1182.57,-79.41 1177.55,-80.93 1172.29,-82.35 1166.8,-83.66 1161.09,-84.88 1155.16,-85.99 1149.01,-87 1142.64,-87.9 1136.07,-88.69 1129.29,-89.38 1122.3,-89.96 1115.13,-90.43 1107.76,-90.8 1100.22,-91.06 1092.51,-91.21 1084.64,-91.26 1076.63,-91.21 1068.49,-91.06 1060.23,-90.8 1051.88,-90.45 1043.45,-90 1034.96,-89.45 1026.44,-88.81 1017.9,-88.08 1009.37,-87.26 1000.88,-86.34 992.46,-85.35 984.13,-84.26 975.92,-83.1 967.87,-81.85 960,-80.52 952.35,-79.12 944.95,-77.65 937.82,-76.1 931.01,-74.49 924.54,-72.8 918.45,-71.06 912.76,-69.25 907.5,-67.39 902.7,-65.47 898.39,-63.5 894.58,-61.49 891.32,-59.43 888.6,-57.33 886.46,-55.19 884.91,-53.02 883.95,-50.83 883.61,-48.62 883.89,-46.39 884.79,-44.15 886.32,-41.9 888.48,-39.66 891.25,-37.42 894.63,-35.19 898.62,-32.99 903.19,-30.81 908.33,-28.66 914.03,-26.54 920.25,-24.48 926.98,-22.46 934.19,-20.51 941.84,-18.62 949.91,-16.8 958.36,-15.06 967.16,-13.41 976.27,-11.85 985.65,-10.38 995.26,-9.03 1005.07,-7.77"/>
<text text-anchor="middle" x="1068.14" y="-44.78" font-family="sans-serif" font-size="16.00">GestionClientesContext</text>
</g>
<!-- GestionPagosContext -->
<g id="node4" class="node">
<title>GestionPagosContext</title>
<polygon fill="none" stroke="black" stroke-width="2" points="1277.48,-57.99 1275.19,-55.19 1273.34,-52.39 1271.91,-49.58 1270.93,-46.79 1270.41,-44.02 1270.33,-41.29 1270.72,-38.61 1271.57,-35.98 1272.87,-33.41 1274.64,-30.92 1276.87,-28.51 1279.54,-26.2 1282.66,-23.97 1286.22,-21.86 1290.21,-19.85 1294.61,-17.96 1299.41,-16.18 1304.6,-14.53 1310.17,-13.01 1316.09,-11.61 1322.35,-10.34 1328.92,-9.21 1335.79,-8.2 1342.93,-7.32 1350.32,-6.58 1357.94,-5.96 1365.76,-5.47 1373.75,-5.1 1381.89,-4.85 1390.15,-4.73 1398.51,-4.71 1406.93,-4.81 1415.39,-5.01 1423.87,-5.32 1432.34,-5.72 1440.76,-6.22 1449.12,-6.81 1457.39,-7.49 1465.54,-8.25 1473.54,-9.08 1481.39,-9.99 1489.04,-10.97 1496.48,-12.02 1503.69,-13.14 1510.65,-14.31 1517.34,-15.54 1523.75,-16.83 1529.85,-18.16 1535.63,-19.55 1541.08,-20.99 1546.19,-22.48 1550.94,-24.01 1555.32,-25.59 1559.33,-27.21 1562.96,-28.87 1566.21,-30.57 1569.06,-32.32 1571.51,-34.1 1573.57,-35.92 1575.23,-37.77 1576.49,-39.67 1577.35,-41.59 1577.82,-43.55 1577.89,-45.54 1577.57,-47.55 1576.86,-49.59 1575.77,-51.66 1574.31,-53.74 1572.47,-55.84 1570.28,-57.96 1567.73,-60.08 1564.84,-62.2 1561.61,-64.33 1558.05,-66.44 1554.17,-68.55 1549.99,-70.63 1545.51,-72.7 1540.74,-74.72 1535.7,-76.71 1530.4,-78.66 1524.84,-80.54 1519.05,-82.37 1513.03,-84.13 1506.8,-85.81 1500.37,-87.4 1493.75,-88.9 1486.96,-90.3 1480.01,-91.59 1472.92,-92.76 1465.7,-93.82 1458.37,-94.74 1450.95,-95.52 1443.44,-96.17 1435.87,-96.67 1428.26,-97.01 1420.61,-97.2 1412.95,-97.23 1405.3,-97.1 1397.68,-96.81 1390.1,-96.35 1382.58,-95.72 1375.15,-94.94 1367.82,-93.98 1360.61,-92.87 1353.54,-91.6 1346.63,-90.18 1339.9,-88.61 1333.37,-86.89 1327.06,-85.03 1321,-83.05 1315.19,-80.94 1309.66,-78.72 1304.42,-76.39 1299.5,-73.97 1294.91,-71.46 1290.67,-68.87 1286.79,-66.22 1283.29,-63.52 1280.18,-60.77 1277.48,-57.99"/>
<text text-anchor="middle" x="1427.14" y="-44.78" font-family="sans-serif" font-size="16.00">GestionPagosContext</text>
</g>
<!-- GestionSeguridadContext -->
<g id="node5" class="node">
<title>GestionSeguridadContext</title>
<polygon fill="none" stroke="black" stroke-width="2" points="1922.41,-16.84 1930.98,-18.79 1939.15,-20.81 1946.89,-22.9 1954.17,-25.05 1960.96,-27.25 1967.23,-29.5 1972.95,-31.78 1978.1,-34.09 1982.66,-36.41 1986.61,-38.75 1989.92,-41.1 1992.6,-43.44 1994.62,-45.78 1995.99,-48.1 1996.69,-50.39 1996.74,-52.66 1996.12,-54.9 1994.85,-57.09 1992.93,-59.24 1990.38,-61.35 1987.21,-63.39 1983.44,-65.39 1979.08,-67.32 1974.17,-69.18 1968.72,-70.98 1962.76,-72.71 1956.32,-74.37 1949.43,-75.95 1942.12,-77.46 1934.43,-78.89 1926.38,-80.24 1918.02,-81.51 1909.38,-82.69 1900.49,-83.8 1891.39,-84.82 1882.11,-85.75 1872.69,-86.6 1863.17,-87.37 1853.57,-88.05 1843.94,-88.64 1834.29,-89.14 1824.67,-89.55 1815.1,-89.88 1805.6,-90.11 1796.21,-90.26 1786.95,-90.31 1777.84,-90.28 1768.91,-90.15 1760.16,-89.92 1751.63,-89.61 1743.32,-89.19 1735.25,-88.69 1727.43,-88.09 1719.88,-87.39 1712.6,-86.6 1705.6,-85.71 1698.89,-84.73 1692.47,-83.65 1686.35,-82.48 1680.53,-81.21 1675.02,-79.85 1669.82,-78.39 1664.93,-76.85 1660.35,-75.22 1656.09,-73.5 1652.13,-71.7 1648.5,-69.82 1645.18,-67.87 1642.19,-65.84 1639.51,-63.74 1637.16,-61.58 1635.13,-59.36 1633.43,-57.09 1632.07,-54.77 1631.04,-52.41 1630.34,-50.02 1630,-47.6 1630,-45.16 1630.36,-42.71 1631.07,-40.25 1632.16,-37.8 1633.61,-35.37 1635.44,-32.95 1637.65,-30.57 1640.25,-28.22 1643.24,-25.92 1646.63,-23.68 1650.41,-21.5 1654.6,-19.4 1659.19,-17.37 1664.18,-15.44 1669.57,-13.6 1675.37,-11.86 1681.55,-10.24 1688.13,-8.74 1695.09,-7.36 1702.42,-6.11 1710.11,-4.99 1718.14,-4.01 1726.51,-3.18 1735.19,-2.49 1744.17,-1.95 1753.41,-1.56 1762.91,-1.33 1772.62,-1.25 1782.53,-1.32 1792.6,-1.54 1802.81,-1.91 1813.11,-2.44 1823.48,-3.1 1833.88,-3.92 1844.27,-4.87 1854.61,-5.95 1864.87,-7.17 1875,-8.5 1884.97,-9.96 1894.73,-11.53 1904.25,-13.21 1913.49,-14.98 1922.41,-16.84"/>
<text text-anchor="middle" x="1799.14" y="-44.78" font-family="sans-serif" font-size="16.00">GestionSeguridadContext</text>
</g>
<!-- GestionVehiculosContext -->
<g id="node6" class="node">
<title>GestionVehiculosContext</title>
<polygon fill="none" stroke="black" stroke-width="2" points="2082.55,-79.37 2074.47,-77.34 2066.78,-75.24 2059.52,-73.08 2052.72,-70.86 2046.41,-68.59 2040.61,-66.28 2035.34,-63.94 2030.64,-61.58 2026.52,-59.21 2023,-56.82 2020.09,-54.44 2017.8,-52.06 2016.15,-49.7 2015.14,-47.36 2014.77,-45.05 2015.05,-42.78 2015.96,-40.54 2017.5,-38.35 2019.67,-36.2 2022.45,-34.12 2025.83,-32.09 2029.78,-30.12 2034.29,-28.22 2039.35,-26.39 2044.91,-24.63 2050.96,-22.95 2057.47,-21.34 2064.4,-19.81 2071.74,-18.36 2079.44,-16.99 2087.47,-15.71 2095.79,-14.51 2104.39,-13.39 2113.21,-12.36 2122.22,-11.41 2131.4,-10.55 2140.7,-9.78 2150.09,-9.1 2159.54,-8.5 2169.02,-7.99 2178.49,-7.57 2187.93,-7.23 2197.31,-6.99 2206.6,-6.83 2215.78,-6.77 2224.81,-6.8 2233.69,-6.91 2242.38,-7.12 2250.88,-7.42 2259.16,-7.81 2267.2,-8.29 2275,-8.87 2282.54,-9.54 2289.81,-10.3 2296.79,-11.16 2303.5,-12.11 2309.9,-13.16 2316.01,-14.3 2321.82,-15.53 2327.31,-16.85 2332.5,-18.26 2337.37,-19.77 2341.92,-21.36 2346.16,-23.03 2350.08,-24.79 2353.68,-26.63 2356.97,-28.55 2359.93,-30.54 2362.57,-32.61 2364.89,-34.73 2366.88,-36.92 2368.55,-39.17 2369.89,-41.46 2370.9,-43.8 2371.58,-46.18 2371.92,-48.59 2371.92,-51.02 2371.58,-53.46 2370.9,-55.92 2369.86,-58.38 2368.46,-60.83 2366.71,-63.26 2364.59,-65.67 2362.1,-68.04 2359.24,-70.37 2356,-72.66 2352.39,-74.88 2348.4,-77.03 2344.03,-79.11 2339.27,-81.1 2334.13,-83 2328.62,-84.8 2322.73,-86.49 2316.48,-88.06 2309.85,-89.52 2302.88,-90.84 2295.56,-92.03 2287.91,-93.09 2279.94,-94 2271.66,-94.76 2263.1,-95.38 2254.28,-95.84 2245.21,-96.15 2235.92,-96.31 2226.43,-96.31 2216.78,-96.15 2206.99,-95.84 2197.09,-95.38 2187.12,-94.76 2177.1,-94 2167.08,-93.1 2157.08,-92.06 2147.15,-90.88 2137.31,-89.57 2127.62,-88.14 2118.1,-86.59 2108.8,-84.93 2099.75,-83.17 2090.99,-81.31 2082.55,-79.37"/>
<text text-anchor="middle" x="2207.14" y="-44.78" font-family="sans-serif" font-size="16.00">GestionVehiculosContext</text>
</g>
</g>
</svg>
